<svg xmlns="http://www.w3.org/2000/svg" viewBox="0 0 1200 720" role="img" aria-labelledby="title desc" font-family="-apple-system, BlinkMacSystemFont, 'Segoe UI', Roboto, sans-serif">
  <title id="title">PayCart dashboard — Refunds list filtered to a single refund</title>
  <desc id="desc">Screenshot of the PayCart dashboard at Payments greater-than Refunds. The search field contains the refund ID rfd_01HXYZ7890ABCDEF. The table has one row: rfd_01HXYZ7890ABCDEF linked to payment pay_01HABCDEF12345, amount minus €25.00 EUR, status Succeeded (green badge), created 2026-04-12 09:41 UTC, updated 2026-04-12 09:41 UTC. The header shows breadcrumb Payments greater-than Refunds and a result count of 1 of 1.</desc>

  <!-- Window chrome -->
  <rect x="0" y="0" width="1200" height="720" fill="#f5f6fa"/>
  <rect x="0" y="0" width="1200" height="44" fill="#e6e8ee"/>
  <circle cx="22" cy="22" r="6" fill="#ff5f57"/>
  <circle cx="42" cy="22" r="6" fill="#febc2e"/>
  <circle cx="62" cy="22" r="6" fill="#28c840"/>
  <rect x="220" y="12" width="760" height="22" rx="4" fill="#ffffff" stroke="#cfd2da" stroke-width="1"/>
  <text x="234" y="28" font-size="12" fill="#5b6172">https://dashboard.paycart.example/refunds</text>

  <!-- Sidebar -->
  <rect x="0" y="44" width="220" height="676" fill="#1f2440"/>
  <text x="24" y="84" font-size="16" font-weight="700" fill="#ffffff">PayCart</text>
  <text x="24" y="130" font-size="11" fill="#8b91ad" letter-spacing="1">DASHBOARD</text>
  <text x="24" y="158" font-size="13" fill="#c8ccdb">Home</text>
  <text x="24" y="190" font-size="11" fill="#8b91ad" letter-spacing="1">PAYMENTS</text>
  <text x="28" y="220" font-size="13" fill="#c8ccdb">Payments</text>
  <rect x="14" y="234" width="192" height="30" rx="4" fill="#2a3060"/>
  <text x="28" y="254" font-size="13" fill="#ffffff" font-weight="600">Refunds</text>
  <text x="28" y="280" font-size="13" fill="#c8ccdb">Disputes</text>
  <text x="24" y="316" font-size="11" fill="#8b91ad" letter-spacing="1">REPORTS</text>
  <text x="28" y="344" font-size="13" fill="#c8ccdb">Ledger</text>
  <text x="28" y="370" font-size="13" fill="#c8ccdb">Exports</text>

  <!-- Breadcrumb + page title -->
  <text x="252" y="92" font-size="13" fill="#7b8198">Payments  ›  Refunds</text>
  <text x="252" y="128" font-size="24" font-weight="700" fill="#1f2440">Refunds</text>
  <text x="252" y="152" font-size="13" fill="#5b6172">All refunds across every payment method.</text>

  <!-- Filters bar -->
  <rect x="252" y="180" width="540" height="36" rx="4" fill="#ffffff" stroke="#cfd2da" stroke-width="1"/>
  <text x="270" y="203" font-size="13" fill="#1f2440" font-family="ui-monospace, SFMono-Regular, Menlo, monospace">rfd_01HXYZ7890ABCDEF</text>
  <text x="772" y="203" font-size="13" fill="#7b8198" text-anchor="end">⌫</text>

  <rect x="804" y="180" width="120" height="36" rx="4" fill="#ffffff" stroke="#cfd2da" stroke-width="1"/>
  <text x="822" y="203" font-size="13" fill="#1f2440">Last 30 days</text>
  <text x="912" y="203" font-size="11" fill="#7b8198" text-anchor="end">▾</text>

  <rect x="936" y="180" width="100" height="36" rx="4" fill="#ffffff" stroke="#cfd2da" stroke-width="1"/>
  <text x="954" y="203" font-size="13" fill="#1f2440">All status</text>
  <text x="1024" y="203" font-size="11" fill="#7b8198" text-anchor="end">▾</text>

  <rect x="1048" y="180" width="128" height="36" rx="4" fill="#1f2440"/>
  <text x="1112" y="203" font-size="13" font-weight="600" fill="#ffffff" text-anchor="middle">Export CSV</text>

  <!-- Result count -->
  <text x="252" y="246" font-size="13" fill="#5b6172">Showing <tspan font-weight="600" fill="#1f2440">1 of 1</tspan> refund matching <tspan font-family="ui-monospace, SFMono-Regular, Menlo, monospace" fill="#1f2440">rfd_01HXYZ7890ABCDEF</tspan>.</text>

  <!-- Table -->
  <rect x="252" y="266" width="924" height="220" rx="6" fill="#ffffff" stroke="#e1e3ec" stroke-width="1"/>

  <!-- Table header -->
  <rect x="252" y="266" width="924" height="36" fill="#f5f6fa"/>
  <text x="270" y="288" font-size="11" font-weight="600" fill="#5b6172" letter-spacing="0.5">REFUND ID</text>
  <text x="486" y="288" font-size="11" font-weight="600" fill="#5b6172" letter-spacing="0.5">LINKED PAYMENT</text>
  <text x="704" y="288" font-size="11" font-weight="600" fill="#5b6172" letter-spacing="0.5">AMOUNT</text>
  <text x="838" y="288" font-size="11" font-weight="600" fill="#5b6172" letter-spacing="0.5">STATUS</text>
  <text x="976" y="288" font-size="11" font-weight="600" fill="#5b6172" letter-spacing="0.5">CREATED</text>
  <text x="1090" y="288" font-size="11" font-weight="600" fill="#5b6172" letter-spacing="0.5">UPDATED</text>

  <!-- Row -->
  <line x1="252" y1="302" x2="1176" y2="302" stroke="#e1e3ec"/>
  <text x="270" y="334" font-size="13" fill="#2c4ea1" font-family="ui-monospace, SFMono-Regular, Menlo, monospace">rfd_01HXYZ7890ABCDEF</text>
  <text x="486" y="334" font-size="13" fill="#2c4ea1" font-family="ui-monospace, SFMono-Regular, Menlo, monospace">pay_01HABCDEF12345</text>
  <text x="704" y="334" font-size="13" font-weight="600" fill="#b13a3a">−€25.00 EUR</text>

  <rect x="838" y="318" width="92" height="22" rx="11" fill="#e6f4ea" stroke="#5fa572" stroke-width="1"/>
  <circle cx="851" cy="329" r="3" fill="#2e7d32"/>
  <text x="860" y="333" font-size="12" font-weight="600" fill="#1f5b32">Succeeded</text>

  <text x="976" y="334" font-size="13" fill="#5b6172">2026-04-12 09:41</text>
  <text x="1090" y="334" font-size="13" fill="#5b6172">2026-04-12 09:41</text>

  <text x="270" y="378" font-size="12" fill="#7b8198">Tip: click the refund ID to open the detail panel, or click the linked payment to view the originating charge.</text>

  <!-- Empty space hint -->
  <line x1="252" y1="408" x2="1176" y2="408" stroke="#eef0f5"/>
  <text x="714" y="446" font-size="13" fill="#9ca3b3" text-anchor="middle">No more results.</text>
</svg>
